# xmcd CD database file
#
# Track frame offsets:
#	150
#	11545
#	31003
#	44096
#	60912
#	77245
#	96956
#	112038
#	126260
#	139095
#	158545
#	178644
#	203676
#	218967
#	239376
#	252735
#
# Disc length: 3768 seconds
#
# Revision: 0
# Processed by: cddbd v1.5.2PL0 Copyright (c) Steve Scherf et al.
# Submitted via: CDex 1.51
#
DISCID=dd0eb610
DTITLE=Veen Goetz Tegler - THREE MEN IN A BEAt, A Tribute To The Great Trios In Jazz
DYEAR=2009
DGENRE=Jazz
TTITLE0=Jubilee
TTITLE1=Swing 42
TTITLE2=Thanks A Million
TTITLE3=Please Don't Talk About Me When I'm Gone
TTITLE4=To You
TTITLE5=What Can I Say After I Say I'm Sorry
TTITLE6=This Is Always
TTITLE7=Cheer Up
TTITLE8=All Alone
TTITLE9=Yacht Club Swing
TTITLE10=Three Little Words
TTITLE11=I Love You
TTITLE12=At Ease
TTITLE13=Swing 39
TTITLE14=It's Wonderful
TTITLE15=Perdido
EXTD=YEAR: 2009
EXTT0=
EXTT1=
EXTT2=
EXTT3=
EXTT4=
EXTT5=
EXTT6=
EXTT7=
EXTT8=
EXTT9=
EXTT10=
EXTT11=
EXTT12=
EXTT13=
EXTT14=
EXTT15=
PLAYORDER=
